<mxfile host="app.diagrams.net" modified="2023-11-26T23:48:21.094Z" agent="Mozilla/5.0 (Windows NT 10.0; Win64; x64) AppleWebKit/537.36 (KHTML, like Gecko) Chrome/119.0.0.0 Safari/537.36" etag="3kaaNQexQFZ6-FiTuWAk" version="22.1.4" type="github">
  <diagram id="C5RBs43oDa-KdzZeNtuy" name="Page-1">
    <mxGraphModel dx="874" dy="507" grid="1" gridSize="10" guides="1" tooltips="1" connect="1" arrows="1" fold="1" page="0" pageScale="1" pageWidth="827" pageHeight="1169" background="none" math="0" shadow="0">
      <root>
        <mxCell id="WIyWlLk6GJQsqaUBKTNV-0" />
        <mxCell id="WIyWlLk6GJQsqaUBKTNV-1" parent="WIyWlLk6GJQsqaUBKTNV-0" />
        <mxCell id="QpmtU8LQtCKUaa_p1Yku-1" style="edgeStyle=orthogonalEdgeStyle;rounded=0;orthogonalLoop=1;jettySize=auto;html=1;exitX=0.5;exitY=1;exitDx=0;exitDy=0;labelBackgroundColor=none;strokeColor=#457B9D;fontColor=default;" edge="1" parent="WIyWlLk6GJQsqaUBKTNV-1" source="QpmtU8LQtCKUaa_p1Yku-0">
          <mxGeometry relative="1" as="geometry">
            <mxPoint x="390" y="180" as="targetPoint" />
          </mxGeometry>
        </mxCell>
        <mxCell id="QpmtU8LQtCKUaa_p1Yku-8" style="edgeStyle=orthogonalEdgeStyle;rounded=0;orthogonalLoop=1;jettySize=auto;html=1;exitX=0.75;exitY=1;exitDx=0;exitDy=0;labelBackgroundColor=none;strokeColor=#457B9D;fontColor=default;" edge="1" parent="WIyWlLk6GJQsqaUBKTNV-1" source="QpmtU8LQtCKUaa_p1Yku-0" target="QpmtU8LQtCKUaa_p1Yku-7">
          <mxGeometry relative="1" as="geometry" />
        </mxCell>
        <mxCell id="QpmtU8LQtCKUaa_p1Yku-22" style="edgeStyle=orthogonalEdgeStyle;rounded=0;orthogonalLoop=1;jettySize=auto;html=1;exitX=0.25;exitY=1;exitDx=0;exitDy=0;entryX=0.5;entryY=0;entryDx=0;entryDy=0;strokeColor=#457B9D;fontColor=#1D3557;fillColor=#A8DADC;" edge="1" parent="WIyWlLk6GJQsqaUBKTNV-1" source="QpmtU8LQtCKUaa_p1Yku-0" target="QpmtU8LQtCKUaa_p1Yku-20">
          <mxGeometry relative="1" as="geometry" />
        </mxCell>
        <mxCell id="QpmtU8LQtCKUaa_p1Yku-0" value="Algoritmos" style="rounded=0;whiteSpace=wrap;html=1;labelBackgroundColor=none;fillColor=#A8DADC;strokeColor=#457B9D;fontColor=#1D3557;" vertex="1" parent="WIyWlLk6GJQsqaUBKTNV-1">
          <mxGeometry x="330" y="70" width="120" height="60" as="geometry" />
        </mxCell>
        <mxCell id="QpmtU8LQtCKUaa_p1Yku-4" style="edgeStyle=orthogonalEdgeStyle;rounded=0;orthogonalLoop=1;jettySize=auto;html=1;exitX=0.5;exitY=1;exitDx=0;exitDy=0;labelBackgroundColor=none;strokeColor=#457B9D;fontColor=default;" edge="1" parent="WIyWlLk6GJQsqaUBKTNV-1" source="QpmtU8LQtCKUaa_p1Yku-2">
          <mxGeometry relative="1" as="geometry">
            <mxPoint x="390" y="280" as="targetPoint" />
          </mxGeometry>
        </mxCell>
        <mxCell id="QpmtU8LQtCKUaa_p1Yku-2" value="¿Qué es?" style="rounded=0;whiteSpace=wrap;html=1;labelBackgroundColor=none;fillColor=#A8DADC;strokeColor=#457B9D;fontColor=#1D3557;" vertex="1" parent="WIyWlLk6GJQsqaUBKTNV-1">
          <mxGeometry x="345" y="180" width="90" height="30" as="geometry" />
        </mxCell>
        <mxCell id="QpmtU8LQtCKUaa_p1Yku-5" value="Es un conjunto de ordenes que establecen un proceso lógico." style="rounded=0;whiteSpace=wrap;html=1;labelBackgroundColor=none;fillColor=#A8DADC;strokeColor=#457B9D;fontColor=#1D3557;" vertex="1" parent="WIyWlLk6GJQsqaUBKTNV-1">
          <mxGeometry x="330" y="280" width="120" height="60" as="geometry" />
        </mxCell>
        <mxCell id="QpmtU8LQtCKUaa_p1Yku-9" style="edgeStyle=orthogonalEdgeStyle;rounded=0;orthogonalLoop=1;jettySize=auto;html=1;exitX=0.5;exitY=1;exitDx=0;exitDy=0;labelBackgroundColor=none;strokeColor=#457B9D;fontColor=default;" edge="1" parent="WIyWlLk6GJQsqaUBKTNV-1" source="QpmtU8LQtCKUaa_p1Yku-7">
          <mxGeometry relative="1" as="geometry">
            <mxPoint x="525" y="280" as="targetPoint" />
          </mxGeometry>
        </mxCell>
        <mxCell id="QpmtU8LQtCKUaa_p1Yku-7" value="¿Para que sirven?" style="rounded=0;whiteSpace=wrap;html=1;labelBackgroundColor=none;fillColor=#A8DADC;strokeColor=#457B9D;fontColor=#1D3557;" vertex="1" parent="WIyWlLk6GJQsqaUBKTNV-1">
          <mxGeometry x="480" y="180" width="90" height="30" as="geometry" />
        </mxCell>
        <mxCell id="QpmtU8LQtCKUaa_p1Yku-14" style="edgeStyle=orthogonalEdgeStyle;rounded=0;orthogonalLoop=1;jettySize=auto;html=1;exitX=0.5;exitY=1;exitDx=0;exitDy=0;entryX=0.5;entryY=0;entryDx=0;entryDy=0;strokeColor=#457B9D;fontColor=#1D3557;fillColor=#A8DADC;" edge="1" parent="WIyWlLk6GJQsqaUBKTNV-1" source="QpmtU8LQtCKUaa_p1Yku-10" target="QpmtU8LQtCKUaa_p1Yku-13">
          <mxGeometry relative="1" as="geometry" />
        </mxCell>
        <mxCell id="QpmtU8LQtCKUaa_p1Yku-10" value="Su función se centra en resolver un problema." style="rounded=0;whiteSpace=wrap;html=1;labelBackgroundColor=none;fillColor=#A8DADC;strokeColor=#457B9D;fontColor=#1D3557;" vertex="1" parent="WIyWlLk6GJQsqaUBKTNV-1">
          <mxGeometry x="465" y="280" width="120" height="60" as="geometry" />
        </mxCell>
        <mxCell id="QpmtU8LQtCKUaa_p1Yku-15" style="edgeStyle=orthogonalEdgeStyle;rounded=0;orthogonalLoop=1;jettySize=auto;html=1;exitX=0.5;exitY=1;exitDx=0;exitDy=0;strokeColor=#457B9D;fontColor=#1D3557;fillColor=#A8DADC;" edge="1" parent="WIyWlLk6GJQsqaUBKTNV-1" source="QpmtU8LQtCKUaa_p1Yku-13">
          <mxGeometry relative="1" as="geometry">
            <mxPoint x="525" y="450" as="targetPoint" />
          </mxGeometry>
        </mxCell>
        <mxCell id="QpmtU8LQtCKUaa_p1Yku-18" style="edgeStyle=orthogonalEdgeStyle;rounded=0;orthogonalLoop=1;jettySize=auto;html=1;exitX=1;exitY=0.5;exitDx=0;exitDy=0;strokeColor=#457B9D;fontColor=#1D3557;fillColor=#A8DADC;" edge="1" parent="WIyWlLk6GJQsqaUBKTNV-1" source="QpmtU8LQtCKUaa_p1Yku-13">
          <mxGeometry relative="1" as="geometry">
            <mxPoint x="640" y="395" as="targetPoint" />
          </mxGeometry>
        </mxCell>
        <mxCell id="QpmtU8LQtCKUaa_p1Yku-13" value="¿Por qué se utilizan tanto?" style="rounded=1;whiteSpace=wrap;html=1;strokeColor=#457B9D;fontColor=#1D3557;fillColor=#A8DADC;" vertex="1" parent="WIyWlLk6GJQsqaUBKTNV-1">
          <mxGeometry x="477.5" y="380" width="95" height="30" as="geometry" />
        </mxCell>
        <mxCell id="QpmtU8LQtCKUaa_p1Yku-19" style="edgeStyle=orthogonalEdgeStyle;rounded=0;orthogonalLoop=1;jettySize=auto;html=1;exitX=1;exitY=0.5;exitDx=0;exitDy=0;strokeColor=#457B9D;fontColor=#1D3557;fillColor=#A8DADC;" edge="1" parent="WIyWlLk6GJQsqaUBKTNV-1" source="QpmtU8LQtCKUaa_p1Yku-17">
          <mxGeometry relative="1" as="geometry">
            <mxPoint x="640" y="480" as="targetPoint" />
          </mxGeometry>
        </mxCell>
        <mxCell id="QpmtU8LQtCKUaa_p1Yku-17" value="Su uso es en todos los ambitos, pero en donde mas suena es en la informatica." style="rounded=0;whiteSpace=wrap;html=1;strokeColor=#457B9D;fontColor=#1D3557;fillColor=#A8DADC;" vertex="1" parent="WIyWlLk6GJQsqaUBKTNV-1">
          <mxGeometry x="465" y="450" width="120" height="60" as="geometry" />
        </mxCell>
        <mxCell id="QpmtU8LQtCKUaa_p1Yku-23" style="edgeStyle=orthogonalEdgeStyle;rounded=0;orthogonalLoop=1;jettySize=auto;html=1;exitX=0.5;exitY=1;exitDx=0;exitDy=0;strokeColor=#457B9D;fontColor=#1D3557;fillColor=#A8DADC;" edge="1" parent="WIyWlLk6GJQsqaUBKTNV-1" source="QpmtU8LQtCKUaa_p1Yku-20">
          <mxGeometry relative="1" as="geometry">
            <mxPoint x="240" y="280" as="targetPoint" />
          </mxGeometry>
        </mxCell>
        <mxCell id="QpmtU8LQtCKUaa_p1Yku-20" value="¿Qué tipos de algoritmos existen?" style="rounded=0;whiteSpace=wrap;html=1;strokeColor=#457B9D;fontColor=#1D3557;fillColor=#A8DADC;" vertex="1" parent="WIyWlLk6GJQsqaUBKTNV-1">
          <mxGeometry x="180" y="180" width="120" height="30" as="geometry" />
        </mxCell>
        <mxCell id="QpmtU8LQtCKUaa_p1Yku-21" value="Y es gracias a esto que existen las búsquedas en Google por ejemplo, ordenamientos de valores, etc." style="rounded=0;whiteSpace=wrap;html=1;strokeColor=#457B9D;fontColor=#1D3557;fillColor=#A8DADC;" vertex="1" parent="WIyWlLk6GJQsqaUBKTNV-1">
          <mxGeometry x="640" y="390" width="120" height="100" as="geometry" />
        </mxCell>
        <mxCell id="QpmtU8LQtCKUaa_p1Yku-26" style="edgeStyle=orthogonalEdgeStyle;rounded=0;orthogonalLoop=1;jettySize=auto;html=1;exitX=0;exitY=0.5;exitDx=0;exitDy=0;strokeColor=#457B9D;fontColor=#1D3557;fillColor=#A8DADC;" edge="1" parent="WIyWlLk6GJQsqaUBKTNV-1" source="QpmtU8LQtCKUaa_p1Yku-24" target="QpmtU8LQtCKUaa_p1Yku-27">
          <mxGeometry relative="1" as="geometry">
            <mxPoint x="80" y="310" as="targetPoint" />
          </mxGeometry>
        </mxCell>
        <mxCell id="QpmtU8LQtCKUaa_p1Yku-32" style="edgeStyle=orthogonalEdgeStyle;rounded=0;orthogonalLoop=1;jettySize=auto;html=1;exitX=0.5;exitY=1;exitDx=0;exitDy=0;strokeColor=#457B9D;fontColor=#1D3557;fillColor=#A8DADC;" edge="1" parent="WIyWlLk6GJQsqaUBKTNV-1" source="QpmtU8LQtCKUaa_p1Yku-24" target="QpmtU8LQtCKUaa_p1Yku-33">
          <mxGeometry relative="1" as="geometry">
            <mxPoint x="240" y="370" as="targetPoint" />
          </mxGeometry>
        </mxCell>
        <mxCell id="QpmtU8LQtCKUaa_p1Yku-24" value="Hay muchas pero para entender mejor el concepto la mejor es :" style="rounded=1;whiteSpace=wrap;html=1;strokeColor=#457B9D;fontColor=#1D3557;fillColor=#A8DADC;" vertex="1" parent="WIyWlLk6GJQsqaUBKTNV-1">
          <mxGeometry x="180" y="280" width="120" height="60" as="geometry" />
        </mxCell>
        <mxCell id="QpmtU8LQtCKUaa_p1Yku-28" style="edgeStyle=orthogonalEdgeStyle;rounded=0;orthogonalLoop=1;jettySize=auto;html=1;exitX=0.5;exitY=1;exitDx=0;exitDy=0;strokeColor=#457B9D;fontColor=#1D3557;fillColor=#A8DADC;" edge="1" parent="WIyWlLk6GJQsqaUBKTNV-1" source="QpmtU8LQtCKUaa_p1Yku-27" target="QpmtU8LQtCKUaa_p1Yku-29">
          <mxGeometry relative="1" as="geometry">
            <mxPoint x="60" y="370" as="targetPoint" />
          </mxGeometry>
        </mxCell>
        <mxCell id="QpmtU8LQtCKUaa_p1Yku-27" value="Una receta de cocina" style="rounded=0;whiteSpace=wrap;html=1;strokeColor=#457B9D;fontColor=#1D3557;fillColor=#A8DADC;" vertex="1" parent="WIyWlLk6GJQsqaUBKTNV-1">
          <mxGeometry y="280" width="120" height="60" as="geometry" />
        </mxCell>
        <mxCell id="QpmtU8LQtCKUaa_p1Yku-30" style="edgeStyle=orthogonalEdgeStyle;rounded=0;orthogonalLoop=1;jettySize=auto;html=1;exitX=0.5;exitY=1;exitDx=0;exitDy=0;strokeColor=#457B9D;fontColor=#1D3557;fillColor=#A8DADC;" edge="1" parent="WIyWlLk6GJQsqaUBKTNV-1" source="QpmtU8LQtCKUaa_p1Yku-29" target="QpmtU8LQtCKUaa_p1Yku-31">
          <mxGeometry relative="1" as="geometry">
            <mxPoint x="60" y="420" as="targetPoint" />
          </mxGeometry>
        </mxCell>
        <mxCell id="QpmtU8LQtCKUaa_p1Yku-29" value="¿Por qué?" style="rounded=1;whiteSpace=wrap;html=1;strokeColor=#457B9D;fontColor=#1D3557;fillColor=#A8DADC;" vertex="1" parent="WIyWlLk6GJQsqaUBKTNV-1">
          <mxGeometry x="30" y="365" width="60" height="25" as="geometry" />
        </mxCell>
        <mxCell id="QpmtU8LQtCKUaa_p1Yku-31" value="Es simple, Una serie de pasos a seguir para hacer una torta, nada mas que eso." style="rounded=0;whiteSpace=wrap;html=1;strokeColor=#457B9D;fontColor=#1D3557;fillColor=#A8DADC;" vertex="1" parent="WIyWlLk6GJQsqaUBKTNV-1">
          <mxGeometry y="440" width="120" height="60" as="geometry" />
        </mxCell>
        <mxCell id="QpmtU8LQtCKUaa_p1Yku-34" style="edgeStyle=orthogonalEdgeStyle;rounded=0;orthogonalLoop=1;jettySize=auto;html=1;exitX=0.25;exitY=1;exitDx=0;exitDy=0;strokeColor=#457B9D;fontColor=#1D3557;fillColor=#A8DADC;entryX=0.5;entryY=0;entryDx=0;entryDy=0;" edge="1" parent="WIyWlLk6GJQsqaUBKTNV-1" source="QpmtU8LQtCKUaa_p1Yku-33" target="QpmtU8LQtCKUaa_p1Yku-37">
          <mxGeometry relative="1" as="geometry">
            <mxPoint x="150" y="540" as="targetPoint" />
          </mxGeometry>
        </mxCell>
        <mxCell id="QpmtU8LQtCKUaa_p1Yku-35" style="edgeStyle=orthogonalEdgeStyle;rounded=0;orthogonalLoop=1;jettySize=auto;html=1;exitX=0.5;exitY=1;exitDx=0;exitDy=0;strokeColor=#457B9D;fontColor=#1D3557;fillColor=#A8DADC;entryX=0.5;entryY=0;entryDx=0;entryDy=0;" edge="1" parent="WIyWlLk6GJQsqaUBKTNV-1" source="QpmtU8LQtCKUaa_p1Yku-33" target="QpmtU8LQtCKUaa_p1Yku-39">
          <mxGeometry relative="1" as="geometry">
            <mxPoint x="240" y="530" as="targetPoint" />
          </mxGeometry>
        </mxCell>
        <mxCell id="QpmtU8LQtCKUaa_p1Yku-38" style="edgeStyle=orthogonalEdgeStyle;rounded=0;orthogonalLoop=1;jettySize=auto;html=1;exitX=0.75;exitY=1;exitDx=0;exitDy=0;strokeColor=#457B9D;fontColor=#1D3557;fillColor=#A8DADC;entryX=0.5;entryY=0;entryDx=0;entryDy=0;" edge="1" parent="WIyWlLk6GJQsqaUBKTNV-1" source="QpmtU8LQtCKUaa_p1Yku-33" target="QpmtU8LQtCKUaa_p1Yku-40">
          <mxGeometry relative="1" as="geometry">
            <mxPoint x="330" y="540" as="targetPoint" />
          </mxGeometry>
        </mxCell>
        <mxCell id="QpmtU8LQtCKUaa_p1Yku-33" value="En cuanto a la informática hay 3 muy utilizados." style="rounded=0;whiteSpace=wrap;html=1;strokeColor=#457B9D;fontColor=#1D3557;fillColor=#A8DADC;" vertex="1" parent="WIyWlLk6GJQsqaUBKTNV-1">
          <mxGeometry x="180" y="440" width="120" height="60" as="geometry" />
        </mxCell>
        <mxCell id="QpmtU8LQtCKUaa_p1Yku-48" style="edgeStyle=orthogonalEdgeStyle;rounded=0;orthogonalLoop=1;jettySize=auto;html=1;exitX=0.5;exitY=1;exitDx=0;exitDy=0;strokeColor=#457B9D;fontColor=#1D3557;fillColor=#A8DADC;" edge="1" parent="WIyWlLk6GJQsqaUBKTNV-1" source="QpmtU8LQtCKUaa_p1Yku-37" target="QpmtU8LQtCKUaa_p1Yku-49">
          <mxGeometry relative="1" as="geometry">
            <mxPoint x="162" y="640" as="targetPoint" />
          </mxGeometry>
        </mxCell>
        <mxCell id="QpmtU8LQtCKUaa_p1Yku-37" value="&lt;div style=&quot;&quot;&gt;&lt;span style=&quot;background-color: initial;&quot;&gt;Busqueda binaria&lt;/span&gt;&lt;/div&gt;" style="rounded=0;whiteSpace=wrap;html=1;strokeColor=#457B9D;fontColor=#1D3557;fillColor=#A8DADC;align=center;" vertex="1" parent="WIyWlLk6GJQsqaUBKTNV-1">
          <mxGeometry x="70" y="540" width="100" height="60" as="geometry" />
        </mxCell>
        <mxCell id="QpmtU8LQtCKUaa_p1Yku-53" style="edgeStyle=orthogonalEdgeStyle;rounded=0;orthogonalLoop=1;jettySize=auto;html=1;exitX=0.5;exitY=1;exitDx=0;exitDy=0;strokeColor=#457B9D;fontColor=#1D3557;fillColor=#A8DADC;" edge="1" parent="WIyWlLk6GJQsqaUBKTNV-1" source="QpmtU8LQtCKUaa_p1Yku-39" target="QpmtU8LQtCKUaa_p1Yku-54">
          <mxGeometry relative="1" as="geometry">
            <mxPoint x="240" y="630" as="targetPoint" />
          </mxGeometry>
        </mxCell>
        <mxCell id="QpmtU8LQtCKUaa_p1Yku-39" value="&lt;h3 style=&quot;box-sizing: border-box; clear: both; margin-top: 0px; margin-bottom: 0.5rem; font-weight: 500; line-height: 1.2;&quot;&gt;&lt;font style=&quot;font-size: 12px;&quot;&gt;Clasificación por combinación&lt;/font&gt;&lt;/h3&gt;" style="rounded=0;whiteSpace=wrap;html=1;strokeColor=#457B9D;fontColor=#1D3557;fillColor=#A8DADC;align=center;" vertex="1" parent="WIyWlLk6GJQsqaUBKTNV-1">
          <mxGeometry x="190" y="540" width="100" height="60" as="geometry" />
        </mxCell>
        <mxCell id="QpmtU8LQtCKUaa_p1Yku-55" style="edgeStyle=orthogonalEdgeStyle;rounded=0;orthogonalLoop=1;jettySize=auto;html=1;exitX=0.5;exitY=1;exitDx=0;exitDy=0;strokeColor=#457B9D;fontColor=#1D3557;fillColor=#A8DADC;" edge="1" parent="WIyWlLk6GJQsqaUBKTNV-1" source="QpmtU8LQtCKUaa_p1Yku-40" target="QpmtU8LQtCKUaa_p1Yku-56">
          <mxGeometry relative="1" as="geometry">
            <mxPoint x="360" y="640" as="targetPoint" />
          </mxGeometry>
        </mxCell>
        <mxCell id="QpmtU8LQtCKUaa_p1Yku-40" value="&lt;h3 style=&quot;box-sizing: border-box; clear: both; margin-top: 0px; margin-bottom: 0.5rem; font-weight: 500; line-height: 1.2;&quot;&gt;&lt;font style=&quot;font-size: 12px;&quot;&gt;Búsqueda secuencial.&amp;nbsp;&lt;/font&gt;&lt;br&gt;&lt;/h3&gt;" style="rounded=0;whiteSpace=wrap;html=1;strokeColor=#457B9D;fontColor=#1D3557;fillColor=#A8DADC;align=center;" vertex="1" parent="WIyWlLk6GJQsqaUBKTNV-1">
          <mxGeometry x="310" y="540" width="100" height="60" as="geometry" />
        </mxCell>
        <mxCell id="QpmtU8LQtCKUaa_p1Yku-49" value="Es un algoritmo de búsqueda fundamental que toma una matriz ordenada y devuelve el índice del valor que estamos buscando." style="rounded=0;whiteSpace=wrap;html=1;strokeColor=#457B9D;fontColor=#1D3557;fillColor=#A8DADC;" vertex="1" parent="WIyWlLk6GJQsqaUBKTNV-1">
          <mxGeometry y="650" width="150" height="100" as="geometry" />
        </mxCell>
        <mxCell id="QpmtU8LQtCKUaa_p1Yku-54" value="Es un algoritmo de ordenamiento, uno de los conocidos es el merge sort, que divide una matriz hasta que ya no se pueda y luego ordena matrices pequeñas sucesivamente." style="rounded=0;whiteSpace=wrap;html=1;strokeColor=#457B9D;fontColor=#1D3557;fillColor=#A8DADC;" vertex="1" parent="WIyWlLk6GJQsqaUBKTNV-1">
          <mxGeometry x="165" y="650" width="150" height="100" as="geometry" />
        </mxCell>
        <mxCell id="QpmtU8LQtCKUaa_p1Yku-56" value="En este tipo de algoritmo se compara el elemento a buscar con cada elemento del conjunto hasta dar con él o hasta que se hayan comparado todos los elementos." style="rounded=0;whiteSpace=wrap;html=1;strokeColor=#457B9D;fontColor=#1D3557;fillColor=#A8DADC;" vertex="1" parent="WIyWlLk6GJQsqaUBKTNV-1">
          <mxGeometry x="330" y="650" width="150" height="100" as="geometry" />
        </mxCell>
      </root>
    </mxGraphModel>
  </diagram>
</mxfile>
